# xmcd
#
# Track frame offsets:
#   150
#   19063
#   28989
#   41622
#   54414
#   65114
#   76045
#   90095
#   101022
#   115150
#   129251
#   149304
#   163895
#   179328
#   191403
#   201013
#   219926
#   237442
#   252501
#   266067
#   279982
#   290053
#   308249
#   321455
#
# Disc length: 4540 seconds
#
# Revision: 1
# Processed by: cddbd v1.5.1PL0 Copyright (c) Steve Scherf et al.
# Submitted via: Media_Universe 3.0
#
DISCID=6111ba18
DTITLE=Sammy Davis Jr. - The Best Of
DYEAR=2003
DGENRE=Blues
TTITLE0=The Girl From Ipanema
TTITLE1=Chicago
TTITLE2=Ocean's Eleven
TTITLE3=Hey There
TTITLE4=Misty
TTITLE5=Keep Your Eye On The Sparrow
TTITLE6=Sam's Song - and Dean Martin
TTITLE7=Medley- Volare - Dean Martin
TTITLE8=Me and My Shadow
TTITLE9=I Got Rhythm - Frank Sinatra, Dean Martin, Sammy Davis Jr., and the other boys
TTITLE10=Birth Of The Blues
TTITLE11=Bye Bye Blackbird
TTITLE12=Lady Is A Tramp
TTITLE13=If My Friends Could See Me Now
TTITLE14=Something's Gotta Give
TTITLE15=The Girl From Ipanema
TTITLE16=Mr. Bojangles
TTITLE17=The Birth of the Blues
TTITLE18=I've
TTITLE19=Can
TTITLE20=All That Jazz
TTITLE21=Johnny Shaft
TTITLE22=Singing In The Rain
TTITLE23=The Party'n Over
EXTD=EP
EXTT0=
EXTT1=
EXTT2=
EXTT3=
EXTT4=
EXTT5=
EXTT6=
EXTT7=
EXTT8=
EXTT9=
EXTT10=
EXTT11=
EXTT12=
EXTT13=
EXTT14=
EXTT15=
EXTT16=
EXTT17=
EXTT18=
EXTT19=
EXTT20=
EXTT21=
EXTT22=
EXTT23=
PLAYORDER=
